<svg width="200" height="200" viewBox="0 0 200 200" fill="none" xmlns="http://www.w3.org/2000/svg">
<rect width="200" height="200" rx="100" fill="#1734D5"/>
<path d="M134.621 90.383V64.3031H93.8316V34.8546C93.3965 34.7459 92.9614 34.5286 92.5263 34.4199C90.0246 33.6593 87.5228 33.3333 84.8035 33.3333C82.9544 33.3333 81.1053 33.6593 79.1474 34.2026C77.407 34.7459 75.6667 35.5066 74.1439 36.7019C72.621 37.7886 71.4246 39.2012 70.4456 40.9399C69.4667 42.6785 69.0316 44.6345 69.0316 47.0252C69.0316 49.5245 69.3579 51.8065 70.0105 54.0885C70.6632 56.3705 71.8596 58.6525 73.2737 61.1518C75.8842 65.7158 82.4105 74.409 86.7614 79.299L82.9544 83.1023C75.8842 77.669 67.1825 67.8891 64.4632 64.3031H55V90.383H67.7263V120.809C67.7263 127.112 68.9228 133.089 71.3158 138.631C73.7088 144.173 76.9719 149.063 81.214 153.192C85.3474 157.43 90.2421 160.69 95.7895 163.081C101.337 165.471 107.319 166.667 113.628 166.667H134.621V140.587H113.737C111.018 140.587 108.407 140.043 106.014 138.957C103.621 137.87 101.446 136.457 99.7052 134.719C97.9649 132.871 96.5509 130.807 95.4631 128.416C94.4842 126.025 93.9403 123.417 93.9403 120.701V90.2743H134.621V90.383Z" fill="white"/>
</svg>

