<svg width="238" height="77" viewBox="0 0 238 77" fill="none" xmlns="http://www.w3.org/2000/svg">
<path d="M108.397 76.7293V65.7256L114.583 65.8252C115.68 65.8252 116.728 65.626 117.725 65.2775C118.723 64.929 119.671 64.4311 120.519 63.7838C121.367 63.1365 122.115 62.3896 122.764 61.5432C123.412 60.6968 123.961 59.7507 124.36 58.7051C123.113 59.2528 121.866 59.7507 120.619 60.2984C119.372 60.8461 118.075 61.0951 116.778 61.0951C114.084 61.0951 111.54 60.5972 109.195 59.6512C106.85 58.7051 104.755 57.311 102.959 55.5185C101.164 53.7261 99.7668 51.5851 98.7691 48.996C97.7714 46.4567 97.2227 43.5688 97.2227 40.3822V15.8354H108.347V40.3822C108.347 41.9755 108.547 43.3199 108.996 44.5148C109.445 45.7098 110.043 46.6558 110.791 47.4525C111.54 48.2491 112.438 48.8466 113.435 49.1951C114.633 49.6433 115.88 49.8424 117.276 49.7428C117.925 49.693 118.524 49.5935 119.122 49.3445C120.469 48.7968 121.617 47.9504 122.564 46.855C123.612 45.66 124.31 44.2161 124.759 42.573C124.959 41.8759 125.009 41.1291 125.009 40.3822V15.8852H136.133V54.4231C136.083 57.5102 135.534 60.4478 134.337 63.1365C133.19 65.875 131.594 68.2151 129.598 70.2566C127.603 72.298 125.258 73.8913 122.564 75.0862C119.92 76.2812 117.027 76.8787 113.984 76.8787L108.397 76.7293Z" fill="#1734D5"/>
<path d="M188.367 37.7429C188.367 41.0788 187.769 44.1658 186.571 47.0039C185.374 49.842 183.778 52.3315 181.733 54.4227C179.687 56.5139 177.293 58.157 174.549 59.352C171.805 60.5469 168.862 61.1444 165.67 61.1444C162.527 61.1444 159.584 60.5469 156.84 59.352C154.096 58.157 151.702 56.5139 149.606 54.4227C147.561 52.3315 145.915 49.842 144.718 47.0039C143.52 44.1658 142.922 41.0788 142.922 37.7429C142.922 34.3571 143.52 31.2701 144.718 28.3822C145.915 25.4944 147.511 23.0546 149.606 20.9634C151.652 18.8722 154.096 17.2291 156.84 16.0342C159.584 14.8392 162.527 14.2417 165.67 14.2417C168.812 14.2417 171.755 14.7894 174.549 15.9346C177.293 17.03 179.687 18.6233 181.733 20.7145C183.778 22.7559 185.374 25.2454 186.571 28.1333C187.769 30.9713 188.367 34.2077 188.367 37.7429ZM176.944 37.7429C176.944 35.9006 176.644 34.2575 176.046 32.8136C175.447 31.3199 174.649 30.0751 173.601 28.9797C172.554 27.9341 171.356 27.0877 170.01 26.54C168.663 25.9923 167.166 25.6935 165.62 25.6935C164.073 25.6935 162.627 25.9923 161.23 26.54C159.883 27.0877 158.686 27.9341 157.638 28.9797C156.64 30.0253 155.842 31.3199 155.244 32.8136C154.645 34.3073 154.395 35.9504 154.395 37.7429C154.395 39.4357 154.695 41.029 155.244 42.5227C155.842 43.9667 156.64 45.2612 157.638 46.3566C158.636 47.452 159.833 48.2985 161.23 48.8959C162.627 49.4934 164.073 49.842 165.62 49.842C167.166 49.842 168.613 49.5432 170.01 48.9955C171.356 48.398 172.554 47.6014 173.601 46.5558C174.649 45.5102 175.447 44.2156 176.046 42.7219C176.644 41.1784 176.944 39.5353 176.944 37.7429Z" fill="#1734D5"/>
<path d="M87.7975 15.831H77.7207C77.6209 15.831 77.5212 15.9306 77.5212 16.08V18.3206C76.3239 17.4741 75.0269 16.7273 73.7299 16.08C72.383 15.4327 71.0361 14.9348 69.6393 14.5863C68.2425 14.2377 66.7959 14.0386 65.3492 14.0386C62.2064 14.0386 59.2632 14.6361 56.5195 15.7812C53.7758 16.9264 51.3315 18.5197 49.2862 20.6109C47.2409 22.7021 45.5947 25.1419 44.3974 28.0795C43.2002 30.9674 42.6016 34.154 42.6016 37.5895C42.6016 41.274 43.2002 44.61 44.3974 47.4978C45.5947 50.4355 47.2409 52.8752 49.2862 54.8669C51.3814 56.8585 53.7758 58.402 56.5195 59.4476C59.5126 60.5928 62.8051 61.1405 66.2471 61.0409C66.8956 60.9911 67.5441 60.9413 68.1926 60.8417C70.0883 60.4932 71.934 59.8957 73.68 59.0493C75.0269 58.4518 76.274 57.7049 77.4713 56.8585C78.6685 56.012 79.8159 55.1158 80.9134 54.12L85.3033 60.1944H88.0469V16.08C88.0469 15.9306 87.9472 15.831 87.7975 15.831ZM76.6232 42.22C76.0246 43.664 75.2265 44.9585 74.1789 46.1037C73.1313 47.1991 71.934 48.0953 70.5871 48.7924C69.2402 49.4397 67.7437 49.7882 66.1972 49.7882C64.6508 49.7882 63.2041 49.4895 61.8073 48.9916C60.4604 48.4937 59.2632 47.697 58.2655 46.6514C57.2678 45.6556 56.4696 44.361 55.871 42.8673C55.2724 41.3736 54.9731 39.6309 54.9731 37.6891C54.9731 35.7473 55.2724 34.0544 55.871 32.5109C56.4696 31.0172 57.2179 29.7226 58.2655 28.7268C59.2632 27.731 60.4604 26.9343 61.8073 26.4364C63.1542 25.8887 64.6508 25.6398 66.1972 25.6398C67.7437 25.6398 69.1903 25.9883 70.5871 26.6356C71.934 27.3327 73.1313 28.2289 74.1789 29.3243C75.1766 30.4695 76.0246 31.7142 76.6232 33.2079C77.2219 34.6519 77.5212 36.1456 77.5212 37.6891C77.5212 39.2824 77.2219 40.7761 76.6232 42.22Z" fill="#1734D5"/>
<path d="M237.7 15.4854H227.623C227.523 15.4854 227.423 15.585 227.423 15.6846V17.8256C226.426 17.1783 225.378 16.531 224.281 16.0331C222.934 15.3858 221.587 14.8879 220.19 14.5394C218.793 14.1909 217.347 13.9917 215.9 13.9917C212.757 13.9917 209.814 14.5892 207.07 15.7842C204.327 16.9791 201.882 18.6222 199.837 20.7134C197.792 22.8046 196.145 25.2942 194.948 28.182C193.751 31.0699 193.152 34.1569 193.152 37.4929C193.152 41.1276 193.751 44.4137 194.948 47.3016C196.145 50.1895 197.742 52.679 199.837 54.6706C201.932 56.6622 204.327 58.2057 207.07 59.3011C209.814 60.3965 212.757 60.9442 215.9 60.9442C216.848 60.9442 217.845 60.8944 218.943 60.7949C220.04 60.6953 221.088 60.4961 222.086 60.1974C223.083 59.8986 224.031 59.5501 224.829 59.102C225.677 58.6539 226.326 58.0564 226.775 57.3095C226.476 58.4547 226.077 59.5501 225.528 60.5459C225.029 61.5417 224.331 62.4877 223.483 63.2844C222.634 64.081 221.587 64.6785 220.34 65.1266C219.093 65.5747 217.596 65.8237 215.8 65.8237L210.213 65.7241V76.7278L215.75 76.7776C218.793 76.7776 221.687 76.1801 224.38 75.035C227.074 73.84 229.419 72.2467 231.464 70.2053C233.46 68.1639 235.056 65.8237 236.253 63.0852C237.4 60.3467 237.999 57.4589 237.999 54.3719V15.7344C237.949 15.585 237.8 15.4854 237.7 15.4854ZM225.378 42.223C224.78 43.6669 223.981 44.9614 222.934 46.1066C221.936 47.202 220.689 48.0983 219.342 48.7953C217.995 49.4426 216.499 49.7911 214.952 49.7911C213.406 49.7911 211.959 49.4924 210.562 48.9447C209.215 48.3472 208.018 47.5506 206.971 46.505C205.973 45.4594 205.175 44.2146 204.576 42.7209C204.027 41.2272 203.728 39.5841 203.728 37.7418C203.728 35.8 204.027 34.1071 204.576 32.5636C205.175 31.0699 205.973 29.7753 206.971 28.7795C207.968 27.7837 209.165 26.987 210.562 26.4891C211.909 25.9414 213.406 25.6925 214.952 25.6925C216.499 25.6925 217.945 26.041 219.342 26.6883C220.689 27.3854 221.936 28.2816 222.934 29.377C223.981 30.5222 224.78 31.7669 225.378 33.2607C225.977 34.7046 226.276 36.1983 226.276 37.7418C226.276 39.2853 225.977 40.779 225.378 42.223Z" fill="#1734D5"/>
<path d="M36.5411 26.1814V14.2128H17.8213V0.698171C17.6216 0.648301 17.4219 0.548563 17.2222 0.498693C16.0741 0.149608 14.9259 0 13.678 0C12.8293 0 11.9807 0.149608 11.0821 0.398955C10.2834 0.648301 9.48471 0.997386 8.78584 1.54595C8.08697 2.04464 7.53785 2.69294 7.08858 3.49085C6.6393 4.28876 6.43962 5.18641 6.43962 6.28354C6.43962 7.43053 6.58938 8.47779 6.8889 9.52504C7.18842 10.5723 7.73753 11.6196 8.38648 12.7665C9.58455 14.8611 12.5797 18.8506 14.5765 21.0947L12.8293 22.8402C9.58455 20.3467 5.59099 15.8584 4.343 14.2128H0V26.1814H5.84059V40.1448C5.84059 43.0372 6.3897 45.78 7.48793 48.3234C8.58616 50.8667 10.0837 53.1108 12.0306 55.0059C13.9276 56.9508 16.1739 58.4468 18.7198 59.544C21.2657 60.6411 24.0113 61.1897 26.9066 61.1897H36.5411V49.221H26.9566C25.7086 49.221 24.5105 48.9717 23.4123 48.473C22.314 47.9743 21.3156 47.326 20.5169 46.5281C19.7182 45.6803 19.0693 44.7328 18.5701 43.6357C18.1208 42.5385 17.8712 41.3417 17.8712 40.0949V26.1315H36.5411V26.1814Z" fill="#1734D5"/>
</svg>
